<mxfile host="app.diagrams.net" modified="2020-12-31T08:17:41.798Z" agent="5.0 (Macintosh; Intel Mac OS X 10_15_6) AppleWebKit/537.36 (KHTML, like Gecko) Chrome/87.0.4280.88 Safari/537.36" etag="FXdsLmEeQ276sbjyKq-w" version="14.1.2" type="github">
  <diagram id="jQAaLUI2CSUw4TK9SEJr" name="Page-1">
    <mxGraphModel dx="786" dy="427" grid="1" gridSize="10" guides="1" tooltips="1" connect="1" arrows="1" fold="1" page="1" pageScale="1" pageWidth="827" pageHeight="1169" background="#114B5F" math="0" shadow="0">
      <root>
        <mxCell id="0" />
        <mxCell id="1" parent="0" />
        <mxCell id="iPEuSm-nHZqJ6S3BHor2-30" value="" style="shape=table;html=1;whiteSpace=wrap;startSize=0;container=1;collapsible=0;childLayout=tableLayout;fontFamily=Architects Daughter;fontSource=https%3A%2F%2Ffonts.googleapis.com%2Fcss%3Ffamily%3DArchitects%2BDaughter;comic=1;fillColor=#F45B69;strokeColor=#028090;fontColor=#E4FDE1;" parent="1" vertex="1">
          <mxGeometry x="30" y="80" width="140" height="264" as="geometry" />
        </mxCell>
        <mxCell id="iPEuSm-nHZqJ6S3BHor2-31" value="" style="shape=partialRectangle;html=1;whiteSpace=wrap;collapsible=0;dropTarget=0;pointerEvents=0;fillColor=none;top=0;left=0;bottom=0;right=0;points=[[0,0.5],[1,0.5]];portConstraint=eastwest;strokeColor=#028090;fontColor=#E4FDE1;" parent="iPEuSm-nHZqJ6S3BHor2-30" vertex="1">
          <mxGeometry width="140" height="44" as="geometry" />
        </mxCell>
        <mxCell id="iPEuSm-nHZqJ6S3BHor2-32" value="&lt;font face=&quot;Architects Daughter&quot; data-font-src=&quot;https://fonts.googleapis.com/css?family=Architects+Daughter&quot;&gt;secion name&lt;/font&gt;" style="shape=partialRectangle;html=1;whiteSpace=wrap;connectable=0;overflow=hidden;fillColor=none;top=0;left=0;bottom=0;right=0;strokeColor=#028090;fontColor=#E4FDE1;" parent="iPEuSm-nHZqJ6S3BHor2-31" vertex="1">
          <mxGeometry width="140" height="44" as="geometry" />
        </mxCell>
        <mxCell id="iPEuSm-nHZqJ6S3BHor2-33" value="" style="shape=partialRectangle;html=1;whiteSpace=wrap;collapsible=0;dropTarget=0;pointerEvents=0;fillColor=none;top=0;left=0;bottom=0;right=0;points=[[0,0.5],[1,0.5]];portConstraint=eastwest;strokeColor=#028090;fontColor=#E4FDE1;" parent="iPEuSm-nHZqJ6S3BHor2-30" vertex="1">
          <mxGeometry y="44" width="140" height="44" as="geometry" />
        </mxCell>
        <mxCell id="iPEuSm-nHZqJ6S3BHor2-34" value="&lt;font face=&quot;Architects Daughter&quot;&gt;segment name&lt;/font&gt;" style="shape=partialRectangle;html=1;whiteSpace=wrap;connectable=0;overflow=hidden;fillColor=none;top=0;left=0;bottom=0;right=0;strokeColor=#028090;fontColor=#E4FDE1;" parent="iPEuSm-nHZqJ6S3BHor2-33" vertex="1">
          <mxGeometry width="140" height="44" as="geometry" />
        </mxCell>
        <mxCell id="iPEuSm-nHZqJ6S3BHor2-35" value="" style="shape=partialRectangle;html=1;whiteSpace=wrap;collapsible=0;dropTarget=0;pointerEvents=0;fillColor=none;top=0;left=0;bottom=0;right=0;points=[[0,0.5],[1,0.5]];portConstraint=eastwest;strokeColor=#028090;fontColor=#E4FDE1;" parent="iPEuSm-nHZqJ6S3BHor2-30" vertex="1">
          <mxGeometry y="88" width="140" height="44" as="geometry" />
        </mxCell>
        <mxCell id="iPEuSm-nHZqJ6S3BHor2-36" value="&lt;font face=&quot;Architects Daughter&quot; data-font-src=&quot;https://fonts.googleapis.com/css?family=Architects+Daughter&quot;&gt;address&lt;/font&gt;" style="shape=partialRectangle;html=1;whiteSpace=wrap;connectable=0;overflow=hidden;fillColor=none;top=0;left=0;bottom=0;right=0;strokeColor=#028090;fontColor=#E4FDE1;" parent="iPEuSm-nHZqJ6S3BHor2-35" vertex="1">
          <mxGeometry width="140" height="44" as="geometry" />
        </mxCell>
        <mxCell id="iPEuSm-nHZqJ6S3BHor2-37" value="" style="shape=partialRectangle;html=1;whiteSpace=wrap;collapsible=0;dropTarget=0;pointerEvents=0;fillColor=none;top=0;left=0;bottom=0;right=0;points=[[0,0.5],[1,0.5]];portConstraint=eastwest;strokeColor=#028090;fontColor=#E4FDE1;" parent="iPEuSm-nHZqJ6S3BHor2-30" vertex="1">
          <mxGeometry y="132" width="140" height="44" as="geometry" />
        </mxCell>
        <mxCell id="iPEuSm-nHZqJ6S3BHor2-38" value="size" style="shape=partialRectangle;html=1;whiteSpace=wrap;connectable=0;overflow=hidden;fillColor=none;top=0;left=0;bottom=0;right=0;fontFamily=Architects Daughter;fontSource=https%3A%2F%2Ffonts.googleapis.com%2Fcss%3Ffamily%3DArchitects%2BDaughter;strokeColor=#028090;fontColor=#E4FDE1;" parent="iPEuSm-nHZqJ6S3BHor2-37" vertex="1">
          <mxGeometry width="140" height="44" as="geometry" />
        </mxCell>
        <mxCell id="iPEuSm-nHZqJ6S3BHor2-39" value="" style="shape=partialRectangle;html=1;whiteSpace=wrap;collapsible=0;dropTarget=0;pointerEvents=0;fillColor=none;top=0;left=0;bottom=0;right=0;points=[[0,0.5],[1,0.5]];portConstraint=eastwest;strokeColor=#028090;fontColor=#E4FDE1;" parent="iPEuSm-nHZqJ6S3BHor2-30" vertex="1">
          <mxGeometry y="176" width="140" height="44" as="geometry" />
        </mxCell>
        <mxCell id="iPEuSm-nHZqJ6S3BHor2-40" value="indirect sym index = 3" style="shape=partialRectangle;html=1;whiteSpace=wrap;connectable=0;overflow=hidden;fillColor=none;top=0;left=0;bottom=0;right=0;fontFamily=Architects Daughter;fontSource=https%3A%2F%2Ffonts.googleapis.com%2Fcss%3Ffamily%3DArchitects%2BDaughter;strokeColor=#028090;fontColor=#E4FDE1;" parent="iPEuSm-nHZqJ6S3BHor2-39" vertex="1">
          <mxGeometry width="140" height="44" as="geometry" />
        </mxCell>
        <mxCell id="iPEuSm-nHZqJ6S3BHor2-49" style="shape=partialRectangle;html=1;whiteSpace=wrap;collapsible=0;dropTarget=0;pointerEvents=0;fillColor=none;top=0;left=0;bottom=0;right=0;points=[[0,0.5],[1,0.5]];portConstraint=eastwest;strokeColor=#028090;fontColor=#E4FDE1;" parent="iPEuSm-nHZqJ6S3BHor2-30" vertex="1">
          <mxGeometry y="220" width="140" height="44" as="geometry" />
        </mxCell>
        <mxCell id="iPEuSm-nHZqJ6S3BHor2-50" value="..." style="shape=partialRectangle;html=1;whiteSpace=wrap;connectable=0;overflow=hidden;fillColor=none;top=0;left=0;bottom=0;right=0;strokeColor=#028090;fontColor=#E4FDE1;" parent="iPEuSm-nHZqJ6S3BHor2-49" vertex="1">
          <mxGeometry width="140" height="44" as="geometry" />
        </mxCell>
        <mxCell id="iPEuSm-nHZqJ6S3BHor2-41" value="&lt;font face=&quot;Architects Daughter&quot; data-font-src=&quot;https://fonts.googleapis.com/css?family=Architects+Daughter&quot;&gt;__got Section Header&lt;/font&gt;" style="text;html=1;align=center;verticalAlign=middle;resizable=0;points=[];autosize=1;fontColor=#E4FDE1;" parent="1" vertex="1">
          <mxGeometry x="30" y="50" width="140" height="20" as="geometry" />
        </mxCell>
        <mxCell id="iPEuSm-nHZqJ6S3BHor2-51" value="" style="shape=table;html=1;whiteSpace=wrap;startSize=0;container=1;collapsible=0;childLayout=tableLayout;strokeColor=#028090;fontColor=#E4FDE1;comic=1;fillColor=#F45B69;" parent="1" vertex="1">
          <mxGeometry x="300" y="80" width="170" height="230" as="geometry" />
        </mxCell>
        <mxCell id="iPEuSm-nHZqJ6S3BHor2-52" value="" style="shape=partialRectangle;html=1;whiteSpace=wrap;collapsible=0;dropTarget=0;pointerEvents=0;fillColor=none;top=0;left=0;bottom=0;right=0;points=[[0,0.5],[1,0.5]];portConstraint=eastwest;strokeColor=#028090;fontColor=#E4FDE1;" parent="iPEuSm-nHZqJ6S3BHor2-51" vertex="1">
          <mxGeometry width="170" height="30" as="geometry" />
        </mxCell>
        <mxCell id="iPEuSm-nHZqJ6S3BHor2-53" value="" style="shape=partialRectangle;html=1;whiteSpace=wrap;connectable=0;overflow=hidden;fillColor=none;top=0;left=0;bottom=0;right=0;strokeColor=#028090;fontColor=#E4FDE1;" parent="iPEuSm-nHZqJ6S3BHor2-52" vertex="1">
          <mxGeometry width="170" height="30" as="geometry" />
        </mxCell>
        <mxCell id="iPEuSm-nHZqJ6S3BHor2-54" value="" style="shape=partialRectangle;html=1;whiteSpace=wrap;collapsible=0;dropTarget=0;pointerEvents=0;fillColor=none;top=0;left=0;bottom=0;right=0;points=[[0,0.5],[1,0.5]];portConstraint=eastwest;strokeColor=#028090;fontColor=#E4FDE1;" parent="iPEuSm-nHZqJ6S3BHor2-51" vertex="1">
          <mxGeometry y="30" width="170" height="40" as="geometry" />
        </mxCell>
        <mxCell id="iPEuSm-nHZqJ6S3BHor2-55" value="" style="shape=partialRectangle;html=1;whiteSpace=wrap;connectable=0;overflow=hidden;fillColor=none;top=0;left=0;bottom=0;right=0;strokeColor=#028090;fontColor=#E4FDE1;" parent="iPEuSm-nHZqJ6S3BHor2-54" vertex="1">
          <mxGeometry width="170" height="40" as="geometry" />
        </mxCell>
        <mxCell id="iPEuSm-nHZqJ6S3BHor2-56" value="" style="shape=partialRectangle;html=1;whiteSpace=wrap;collapsible=0;dropTarget=0;pointerEvents=0;fillColor=none;top=0;left=0;bottom=0;right=0;points=[[0,0.5],[1,0.5]];portConstraint=eastwest;strokeColor=#028090;fontColor=#E4FDE1;" parent="iPEuSm-nHZqJ6S3BHor2-51" vertex="1">
          <mxGeometry y="70" width="170" height="40" as="geometry" />
        </mxCell>
        <mxCell id="iPEuSm-nHZqJ6S3BHor2-57" value="" style="shape=partialRectangle;html=1;whiteSpace=wrap;connectable=0;overflow=hidden;fillColor=none;top=0;left=0;bottom=0;right=0;strokeColor=#028090;fontColor=#E4FDE1;" parent="iPEuSm-nHZqJ6S3BHor2-56" vertex="1">
          <mxGeometry width="170" height="40" as="geometry" />
        </mxCell>
        <mxCell id="iPEuSm-nHZqJ6S3BHor2-58" value="" style="shape=partialRectangle;html=1;whiteSpace=wrap;collapsible=0;dropTarget=0;pointerEvents=0;fillColor=none;top=0;left=0;bottom=0;right=0;points=[[0,0.5],[1,0.5]];portConstraint=eastwest;strokeColor=#028090;fontColor=#E4FDE1;" parent="iPEuSm-nHZqJ6S3BHor2-51" vertex="1">
          <mxGeometry y="110" width="170" height="40" as="geometry" />
        </mxCell>
        <mxCell id="iPEuSm-nHZqJ6S3BHor2-59" value="&lt;font face=&quot;Architects Daughter&quot;&gt;first symbol = 2&lt;/font&gt;" style="shape=partialRectangle;html=1;whiteSpace=wrap;connectable=0;overflow=hidden;fillColor=none;top=0;left=0;bottom=0;right=0;strokeColor=#028090;fontColor=#E4FDE1;" parent="iPEuSm-nHZqJ6S3BHor2-58" vertex="1">
          <mxGeometry width="170" height="40" as="geometry" />
        </mxCell>
        <mxCell id="iPEuSm-nHZqJ6S3BHor2-60" value="" style="shape=partialRectangle;html=1;whiteSpace=wrap;collapsible=0;dropTarget=0;pointerEvents=0;fillColor=none;top=0;left=0;bottom=0;right=0;points=[[0,0.5],[1,0.5]];portConstraint=eastwest;strokeColor=#028090;fontColor=#E4FDE1;" parent="iPEuSm-nHZqJ6S3BHor2-51" vertex="1">
          <mxGeometry y="150" width="170" height="40" as="geometry" />
        </mxCell>
        <mxCell id="iPEuSm-nHZqJ6S3BHor2-61" value="second symbol = 4" style="shape=partialRectangle;html=1;whiteSpace=wrap;connectable=0;overflow=hidden;fillColor=none;top=0;left=0;bottom=0;right=0;strokeColor=#028090;fontColor=#E4FDE1;fontFamily=Architects Daughter;fontSource=https%3A%2F%2Ffonts.googleapis.com%2Fcss%3Ffamily%3DArchitects%2BDaughter;" parent="iPEuSm-nHZqJ6S3BHor2-60" vertex="1">
          <mxGeometry width="170" height="40" as="geometry" />
        </mxCell>
        <mxCell id="iPEuSm-nHZqJ6S3BHor2-62" value="" style="shape=partialRectangle;html=1;whiteSpace=wrap;collapsible=0;dropTarget=0;pointerEvents=0;fillColor=none;top=0;left=0;bottom=0;right=0;points=[[0,0.5],[1,0.5]];portConstraint=eastwest;strokeColor=#028090;fontColor=#E4FDE1;" parent="iPEuSm-nHZqJ6S3BHor2-51" vertex="1">
          <mxGeometry y="190" width="170" height="40" as="geometry" />
        </mxCell>
        <mxCell id="iPEuSm-nHZqJ6S3BHor2-63" value="third symbol" style="shape=partialRectangle;html=1;whiteSpace=wrap;connectable=0;overflow=hidden;fillColor=none;top=0;left=0;bottom=0;right=0;strokeColor=#028090;fontColor=#E4FDE1;fontFamily=Architects Daughter;fontSource=https%3A%2F%2Ffonts.googleapis.com%2Fcss%3Ffamily%3DArchitects%2BDaughter;" parent="iPEuSm-nHZqJ6S3BHor2-62" vertex="1">
          <mxGeometry width="170" height="40" as="geometry" />
        </mxCell>
        <mxCell id="iPEuSm-nHZqJ6S3BHor2-64" value="&lt;font face=&quot;Architects Daughter&quot; data-font-src=&quot;https://fonts.googleapis.com/css?family=Architects+Daughter&quot;&gt;Indirect Symbol Table&lt;/font&gt;" style="text;html=1;align=center;verticalAlign=middle;resizable=0;points=[];autosize=1;fontColor=#E4FDE1;" parent="1" vertex="1">
          <mxGeometry x="320" y="50" width="130" height="20" as="geometry" />
        </mxCell>
        <mxCell id="iPEuSm-nHZqJ6S3BHor2-65" style="edgeStyle=orthogonalEdgeStyle;curved=0;rounded=1;sketch=0;orthogonalLoop=1;jettySize=auto;html=1;exitX=1;exitY=0.5;exitDx=0;exitDy=0;entryX=0;entryY=0.5;entryDx=0;entryDy=0;strokeColor=#028090;fillColor=#F45B69;fontColor=#E4FDE1;labelBackgroundColor=#114B5F;" parent="1" source="iPEuSm-nHZqJ6S3BHor2-39" target="iPEuSm-nHZqJ6S3BHor2-58" edge="1">
          <mxGeometry relative="1" as="geometry" />
        </mxCell>
        <mxCell id="fG8BS5Yz-uuGscQw6S1R-2" value="" style="shape=table;html=1;whiteSpace=wrap;startSize=0;container=1;collapsible=0;childLayout=tableLayout;comic=1;fontFamily=Architects Daughter;fontSource=https%3A%2F%2Ffonts.googleapis.com%2Fcss%3Ffamily%3DArchitects%2BDaughter;fillColor=#F45B69;strokeColor=#028090;fontColor=#E4FDE1;" parent="1" vertex="1">
          <mxGeometry x="590" y="80" width="60" height="240" as="geometry" />
        </mxCell>
        <mxCell id="fG8BS5Yz-uuGscQw6S1R-3" value="" style="shape=partialRectangle;html=1;whiteSpace=wrap;collapsible=0;dropTarget=0;pointerEvents=0;fillColor=none;top=0;left=0;bottom=0;right=0;points=[[0,0.5],[1,0.5]];portConstraint=eastwest;strokeColor=#028090;fontColor=#E4FDE1;" parent="fG8BS5Yz-uuGscQw6S1R-2" vertex="1">
          <mxGeometry width="60" height="40" as="geometry" />
        </mxCell>
        <mxCell id="fG8BS5Yz-uuGscQw6S1R-4" value="" style="shape=partialRectangle;html=1;whiteSpace=wrap;connectable=0;overflow=hidden;fillColor=none;top=0;left=0;bottom=0;right=0;strokeColor=#028090;fontColor=#E4FDE1;" parent="fG8BS5Yz-uuGscQw6S1R-3" vertex="1">
          <mxGeometry width="60" height="40" as="geometry" />
        </mxCell>
        <mxCell id="fG8BS5Yz-uuGscQw6S1R-5" value="" style="shape=partialRectangle;html=1;whiteSpace=wrap;collapsible=0;dropTarget=0;pointerEvents=0;fillColor=none;top=0;left=0;bottom=0;right=0;points=[[0,0.5],[1,0.5]];portConstraint=eastwest;strokeColor=#028090;fontColor=#E4FDE1;" parent="fG8BS5Yz-uuGscQw6S1R-2" vertex="1">
          <mxGeometry y="40" width="60" height="40" as="geometry" />
        </mxCell>
        <mxCell id="fG8BS5Yz-uuGscQw6S1R-6" value="" style="shape=partialRectangle;html=1;whiteSpace=wrap;connectable=0;overflow=hidden;fillColor=none;top=0;left=0;bottom=0;right=0;strokeColor=#028090;fontColor=#E4FDE1;" parent="fG8BS5Yz-uuGscQw6S1R-5" vertex="1">
          <mxGeometry width="60" height="40" as="geometry" />
        </mxCell>
        <mxCell id="fG8BS5Yz-uuGscQw6S1R-7" value="" style="shape=partialRectangle;html=1;whiteSpace=wrap;collapsible=0;dropTarget=0;pointerEvents=0;fillColor=none;top=0;left=0;bottom=0;right=0;points=[[0,0.5],[1,0.5]];portConstraint=eastwest;strokeColor=#028090;fontColor=#E4FDE1;" parent="fG8BS5Yz-uuGscQw6S1R-2" vertex="1">
          <mxGeometry y="80" width="60" height="40" as="geometry" />
        </mxCell>
        <mxCell id="fG8BS5Yz-uuGscQw6S1R-8" value="&lt;font color=&quot;#ffffff&quot;&gt;5&lt;/font&gt;" style="shape=partialRectangle;html=1;whiteSpace=wrap;connectable=0;overflow=hidden;fillColor=none;top=0;left=0;bottom=0;right=0;fontFamily=Architects Daughter;fontSource=https%3A%2F%2Ffonts.googleapis.com%2Fcss%3Ffamily%3DArchitects%2BDaughter;strokeColor=#028090;fontColor=#E4FDE1;" parent="fG8BS5Yz-uuGscQw6S1R-7" vertex="1">
          <mxGeometry width="60" height="40" as="geometry" />
        </mxCell>
        <mxCell id="fG8BS5Yz-uuGscQw6S1R-9" value="" style="shape=partialRectangle;html=1;whiteSpace=wrap;collapsible=0;dropTarget=0;pointerEvents=0;fillColor=none;top=0;left=0;bottom=0;right=0;points=[[0,0.5],[1,0.5]];portConstraint=eastwest;strokeColor=#028090;fontColor=#E4FDE1;" parent="fG8BS5Yz-uuGscQw6S1R-2" vertex="1">
          <mxGeometry y="120" width="60" height="40" as="geometry" />
        </mxCell>
        <mxCell id="fG8BS5Yz-uuGscQw6S1R-10" value="" style="shape=partialRectangle;html=1;whiteSpace=wrap;connectable=0;overflow=hidden;fillColor=none;top=0;left=0;bottom=0;right=0;strokeColor=#028090;fontColor=#E4FDE1;" parent="fG8BS5Yz-uuGscQw6S1R-9" vertex="1">
          <mxGeometry width="60" height="40" as="geometry" />
        </mxCell>
        <mxCell id="fG8BS5Yz-uuGscQw6S1R-11" value="" style="shape=partialRectangle;html=1;whiteSpace=wrap;collapsible=0;dropTarget=0;pointerEvents=0;fillColor=none;top=0;left=0;bottom=0;right=0;points=[[0,0.5],[1,0.5]];portConstraint=eastwest;strokeColor=#028090;fontColor=#E4FDE1;" parent="fG8BS5Yz-uuGscQw6S1R-2" vertex="1">
          <mxGeometry y="160" width="60" height="40" as="geometry" />
        </mxCell>
        <mxCell id="fG8BS5Yz-uuGscQw6S1R-12" value="&lt;font face=&quot;Architects Daughter&quot; data-font-src=&quot;https://fonts.googleapis.com/css?family=Architects+Daughter&quot;&gt;8&lt;/font&gt;" style="shape=partialRectangle;html=1;whiteSpace=wrap;connectable=0;overflow=hidden;fillColor=none;top=0;left=0;bottom=0;right=0;strokeColor=#028090;fontColor=#E4FDE1;" parent="fG8BS5Yz-uuGscQw6S1R-11" vertex="1">
          <mxGeometry width="60" height="40" as="geometry" />
        </mxCell>
        <mxCell id="fG8BS5Yz-uuGscQw6S1R-13" value="" style="shape=partialRectangle;html=1;whiteSpace=wrap;collapsible=0;dropTarget=0;pointerEvents=0;fillColor=none;top=0;left=0;bottom=0;right=0;points=[[0,0.5],[1,0.5]];portConstraint=eastwest;strokeColor=#028090;fontColor=#E4FDE1;" parent="fG8BS5Yz-uuGscQw6S1R-2" vertex="1">
          <mxGeometry y="200" width="60" height="40" as="geometry" />
        </mxCell>
        <mxCell id="fG8BS5Yz-uuGscQw6S1R-14" value="" style="shape=partialRectangle;html=1;whiteSpace=wrap;connectable=0;overflow=hidden;fillColor=none;top=0;left=0;bottom=0;right=0;strokeColor=#028090;fontColor=#E4FDE1;" parent="fG8BS5Yz-uuGscQw6S1R-13" vertex="1">
          <mxGeometry width="60" height="40" as="geometry" />
        </mxCell>
        <mxCell id="fG8BS5Yz-uuGscQw6S1R-15" value="Symbol Table" style="text;html=1;align=center;verticalAlign=middle;resizable=0;points=[];autosize=1;fontFamily=Architects Daughter;fontColor=#E4FDE1;" parent="1" vertex="1">
          <mxGeometry x="580" y="50" width="90" height="20" as="geometry" />
        </mxCell>
        <mxCell id="fG8BS5Yz-uuGscQw6S1R-23" style="edgeStyle=orthogonalEdgeStyle;curved=0;rounded=1;sketch=0;orthogonalLoop=1;jettySize=auto;html=1;exitX=1;exitY=0.5;exitDx=0;exitDy=0;entryX=0;entryY=0.5;entryDx=0;entryDy=0;strokeColor=#028090;fillColor=#F45B69;fontColor=#E4FDE1;" parent="1" source="iPEuSm-nHZqJ6S3BHor2-58" target="fG8BS5Yz-uuGscQw6S1R-7" edge="1">
          <mxGeometry relative="1" as="geometry" />
        </mxCell>
        <mxCell id="fG8BS5Yz-uuGscQw6S1R-24" style="edgeStyle=orthogonalEdgeStyle;curved=0;rounded=1;sketch=0;orthogonalLoop=1;jettySize=auto;html=1;exitX=1;exitY=0.5;exitDx=0;exitDy=0;entryX=0;entryY=0.5;entryDx=0;entryDy=0;strokeColor=#028090;fillColor=#F45B69;fontColor=#E4FDE1;" parent="1" source="iPEuSm-nHZqJ6S3BHor2-60" target="fG8BS5Yz-uuGscQw6S1R-11" edge="1">
          <mxGeometry relative="1" as="geometry" />
        </mxCell>
      </root>
    </mxGraphModel>
  </diagram>
</mxfile>
